<svg xmlns="http://www.w3.org/2000/svg" viewBox="0 0 220 280" width="220" height="280">
  <rect x="0" y="0" width="220" height="280" rx="10" fill="#121215" stroke="rgba(255,255,255,0.08)" stroke-width="1"/>

  <!-- Status item (disabled) -->
  <rect x="0" y="0" width="220" height="38" rx="10" fill="#121215"/>
  <text x="16" y="23" font-family="-apple-system, BlinkMacSystemFont, Segoe UI, sans-serif" font-size="12" fill="#94949E">Status</text>
  <circle cx="178" cy="19" r="3" fill="#22C55E"/>
  <text x="186" y="24" font-family="-apple-system, BlinkMacSystemFont, Segoe UI, sans-serif" font-size="11" fill="#22C55E" font-weight="500">3:42</text>

  <line x1="12" y1="38" x2="208" y2="38" stroke="rgba(255,255,255,0.06)"/>

  <!-- Analytics -->
  <rect x="0" y="39" width="220" height="34" fill="none"/>
  <text x="16" y="61" font-family="-apple-system, BlinkMacSystemFont, Segoe UI, sans-serif" font-size="12" fill="#EDEDF5">Analytics</text>

  <!-- Settings -->
  <rect x="0" y="73" width="220" height="34" fill="none"/>
  <text x="16" y="95" font-family="-apple-system, BlinkMacSystemFont, Segoe UI, sans-serif" font-size="12" fill="#EDEDF5">Settings</text>

  <line x1="12" y1="107" x2="208" y2="107" stroke="rgba(255,255,255,0.06)"/>

  <!-- Send Feedback -->
  <rect x="0" y="108" width="220" height="34" fill="none"/>
  <text x="16" y="130" font-family="-apple-system, BlinkMacSystemFont, Segoe UI, sans-serif" font-size="12" fill="#EDEDF5">Send Feedback</text>

  <!-- Check for Updates -->
  <rect x="0" y="142" width="220" height="34" fill="none"/>
  <text x="16" y="164" font-family="-apple-system, BlinkMacSystemFont, Segoe UI, sans-serif" font-size="12" fill="#EDEDF5">Check for Updates</text>

  <line x1="12" y1="176" x2="208" y2="176" stroke="rgba(255,255,255,0.06)"/>

  <!-- Quit -->
  <rect x="0" y="177" width="220" height="34" fill="none"/>
  <text x="16" y="199" font-family="-apple-system, BlinkMacSystemFont, Segoe UI, sans-serif" font-size="12" fill="#EDEDF5">Quit</text>

  <!-- Tray icon above menu -->
  <g transform="translate(176, -34)">
    <rect x="0" y="0" width="28" height="28" rx="6" fill="#0B0B0E" stroke="rgba(255,255,255,0.10)" stroke-width="1"/>
    <text x="14" y="19" font-family="-apple-system, BlinkMacSystemFont, Segoe UI, sans-serif" font-size="14" fill="#58A6FF" text-anchor="middle" font-weight="700">N</text>
  </g>
</svg>