<svg xmlns="http://www.w3.org/2000/svg" viewBox="0 0 200 260" width="200" height="260">
  <defs>
    <filter id="shadow" x="-10%" y="-10%" width="130%" height="130%">
      <feDropShadow dx="0" dy="4" stdDeviation="12" flood-color="#000" flood-opacity="0.25"/>
    </filter>
  </defs>

  <!-- Menu background -->
  <rect x="0" y="0" width="200" height="260" rx="8" ry="8" fill="#1C1C20" filter="url(#shadow)"/>

  <!-- Border -->
  <rect x="0.5" y="0.5" width="199" height="259" rx="7.5" ry="7.5" fill="none" stroke="rgba(255,255,255,0.12)" stroke-width="1"/>

  <!-- Status item (disabled) -->
  <rect x="0" y="0" width="200" height="36" rx="8" ry="8" fill="#1C1C20"/>
  <text x="16" y="22" font-family="-apple-system, BlinkMacSystemFont, Segoe UI, sans-serif" font-size="12" fill="#9696A0" font-weight="400">Status</text>
  <!-- Live countdown -->
  <circle cx="158" cy="18" r="3" fill="#4CAF50"/>
  <text x="166" y="22" font-family="-apple-system, BlinkMacSystemFont, Segoe UI, sans-serif" font-size="11" fill="#4CAF50" font-weight="500">3:42</text>

  <line x1="12" y1="35" x2="188" y2="35" stroke="rgba(255,255,255,0.06)" stroke-width="1"/>

  <!-- Analytics -->
  <rect x="0" y="36" width="200" height="34" fill="none"/>
  <text x="16" y="58" font-family="-apple-system, BlinkMacSystemFont, Segoe UI, sans-serif" font-size="12" fill="#F0F0F5" font-weight="400">Analytics</text>
  <text x="182" y="58" font-family="-apple-system, BlinkMacSystemFont, Segoe UI, sans-serif" font-size="11" fill="#787882" text-anchor="end">⌘A</text>

  <!-- Settings -->
  <rect x="0" y="70" width="200" height="34" fill="none"/>
  <text x="16" y="92" font-family="-apple-system, BlinkMacSystemFont, Segoe UI, sans-serif" font-size="12" fill="#F0F0F5" font-weight="400">Settings</text>
  <text x="182" y="92" font-family="-apple-system, BlinkMacSystemFont, Segoe UI, sans-serif" font-size="11" fill="#787882" text-anchor="end">⌘,</text>

  <line x1="12" y1="104" x2="188" y2="104" stroke="rgba(255,255,255,0.06)" stroke-width="1"/>

  <!-- Send Feedback -->
  <rect x="0" y="105" width="200" height="34" fill="none"/>
  <text x="16" y="127" font-family="-apple-system, BlinkMacSystemFont, Segoe UI, sans-serif" font-size="12" fill="#F0F0F5" font-weight="400">Send Feedback</text>

  <!-- Check for Updates -->
  <rect x="0" y="139" width="200" height="34" fill="none"/>
  <text x="16" y="161" font-family="-apple-system, BlinkMacSystemFont, Segoe UI, sans-serif" font-size="12" fill="#F0F0F5" font-weight="400">Check for Updates</text>

  <line x1="12" y1="173" x2="188" y2="173" stroke="rgba(255,255,255,0.06)" stroke-width="1"/>

  <!-- Quit -->
  <rect x="0" y="174" width="200" height="34" fill="none"/>
  <text x="16" y="196" font-family="-apple-system, BlinkMacSystemFont, Segoe UI, sans-serif" font-size="12" fill="#F0F0F5" font-weight="400">Quit</text>
  <text x="182" y="196" font-family="-apple-system, BlinkMacSystemFont, Segoe UI, sans-serif" font-size="11" fill="#787882" text-anchor="end">⌘Q</text>

  <!-- Tray icon (shown above menu as reference) -->
  <g transform="translate(160, -44)">
    <rect x="0" y="0" width="32" height="32" rx="8" ry="8" fill="#121214" stroke="rgba(255,255,255,0.12)" stroke-width="1"/>
    <!-- Nudge icon: simple N letter -->
    <text x="16" y="21" font-family="-apple-system, BlinkMacSystemFont, Segoe UI, sans-serif" font-size="16" fill="#5588FF" text-anchor="middle" font-weight="700">N</text>
  </g>
</svg>
